# xmcd CD database file
#
# Track frame offsets:
#	150
#	18302
#	40352
#	59492
#	78357
#	100240
#	122405
#	140350
#	157600
#	180317
#	191467
#	213437
#	244610
#
# Disc length: 3574 seconds
#
# Revision: 0
# Processed by: cddbd v1.5PL3 Copyright (c) Steve Scherf et al.
# Submitted via: CDex 1.50beta8
#
DISCID=9d0df40d
DTITLE=ANGEL - CHERISH
DYEAR=2003
DGENRE=Seiyu
TTITLE0=春の宵〜夢のはじまり〜
TTITLE1=桜の花が咲く頃に
TTITLE2=翼
TTITLE3=YOUR CHHER GIRL
TTITLE4=CHERISH〜聖なる光〜
TTITLE5=五月雨 -Album mix-
TTITLE6=メビウスの魔法〜２∞３〜
TTITLE7=WIsh your happiness
TTITLE8=ウォーアイニーシー
TTITLE9=輝姫 -piano ver.-
TTITLE10=LOVE PAIN -Album mix-
TTITLE11=向日葵
TTITLE12=CD-EXTRAトラック CHERISH〜聖なる光〜 music clip
EXTD=YEAR: 2003
EXTT0=
EXTT1=
EXTT2=
EXTT3=
EXTT4=
EXTT5=
EXTT6=
EXTT7=
EXTT8=
EXTT9=
EXTT10=
EXTT11=
EXTT12=
PLAYORDER=
